<svg width="26" height="26" viewBox="0 0 26 26" fill="none" xmlns="http://www.w3.org/2000/svg">
  <path d="M25.3644 10.7472L26 10.6406V4.875H0V10.6406L0.635629 10.7473C1.73855 10.9324 2.53906 11.8798 2.53906 13C2.53906 14.1202 1.73855 15.0676 0.635629 15.2528L0 15.3594V21.125H26V15.3594L25.3644 15.2527C24.2615 15.0676 23.4609 14.1202 23.4609 13C23.4609 11.8798 24.2615 10.9324 25.3644 10.7472ZM24.4766 16.592V19.6016H18.8906V18.3574H17.3672V19.6016H1.52344V16.592C3.02702 16.0654 4.0625 14.6443 4.0625 13C4.0625 11.3557 3.02702 9.93464 1.52344 9.40799V6.39844H17.3672V7.64258H18.8906V6.39844H24.4766V9.40799C22.973 9.93464 21.9375 11.3557 21.9375 13C21.9375 14.6443 22.973 16.0654 24.4766 16.592Z" fill="black"></path>
  <path d="M18.8906 13.7871H17.3672V16.834H18.8906V13.7871Z" fill="black"></path>
  <path d="M18.8906 9.16602H17.3672V12.2129H18.8906V9.16602Z" fill="black"></path>
  </svg>